<mxfile host="65bd71144e">
    <diagram id="HIP3nbAZw_EuaXWnEj3U" name="Page-1">
        <mxGraphModel dx="946" dy="608" grid="1" gridSize="10" guides="1" tooltips="1" connect="1" arrows="1" fold="1" page="1" pageScale="1" pageWidth="850" pageHeight="1100" math="0" shadow="0">
            <root>
                <mxCell id="0"/>
                <mxCell id="1" parent="0"/>
                <mxCell id="7" value="http://ics2o.mths.ca" style="swimlane;whiteSpace=wrap;html=1;" vertex="1" parent="1">
                    <mxGeometry x="40" y="40" width="760" height="480" as="geometry"/>
                </mxCell>
                <mxCell id="8" value="Please enter in a number and it add up the sum of all&lt;div&gt;the numbers before it.&lt;/div&gt;" style="text;html=1;align=left;verticalAlign=middle;resizable=0;points=[];autosize=1;strokeColor=none;fillColor=none;fontSize=20;fontColor=light-dark(#000000,#FFFFFF);" vertex="1" parent="7">
                    <mxGeometry x="20" y="90" width="490" height="60" as="geometry"/>
                </mxCell>
                <mxCell id="9" value="Calculate" style="rounded=1;whiteSpace=wrap;html=1;fontSize=20;" vertex="1" parent="7">
                    <mxGeometry x="20" y="210" width="190" height="40" as="geometry"/>
                </mxCell>
                <mxCell id="10" value="The sum of all the natural numbers up to 50 is&amp;nbsp;1275." style="text;html=1;align=left;verticalAlign=middle;resizable=0;points=[];autosize=1;strokeColor=none;fillColor=none;fontSize=15;fontColor=light-dark(#000000,#FFFFFF);" vertex="1" parent="7">
                    <mxGeometry x="20" y="260" width="370" height="30" as="geometry"/>
                </mxCell>
                <mxCell id="15" value="" style="shape=image;verticalLabelPosition=bottom;labelBackgroundColor=default;verticalAlign=top;aspect=fixed;imageAspect=0;image=data:image/png,iVBORw0KGgoAAAANSUhEUgAAAacAAABwCAYAAAC6o7+7AAAAAXNSR0IArs4c6QAAAARnQU1BAACxjwv8YQUAAAAJcEhZcwAADsMAAA7DAcdvqGQAACPtSURBVHhe7d15XFT1/vjx1wzDIiOriBK44EKIAW6pdMWWq3lxyX0JxURUBJdcckXBNO2qoIUmKoEpmanptSzLXbNcM5frQhfNXSwVLTaXAX5/fGF+zAEVZYBR38/HYx4P5vP+nEHGmfM+53Pen89R1apVKw8hhBDChKiVDUIIIURFk+QkhBDC5EhyEkIIYXIkOQkhhDA5kpyEEEKYHElOQgghTI4kJyGEECZHkpMQQgiTI8lJCCGEyZHkJIQQwuRIchJCCGFyJDkJIYQwOZKchBBCmByTSU5VqlTB1dUVrVarb6tcuTLVqlXDxcUFGxsbg/5CCCGeXSpTuGWGr68vc+fOxd7engsXLjBo0CBq1KhBSEgIrq6uODs7c+XKFT788ENOnDih3FwIIcQzpsKTk52dHUlJSSxfvhwPDw9CQ0PZtWsX5ubmJCYmcvz4cZo1a0ZcXBwHDhxg4MCBZGZmKl9GCCHEM6TCh/WaN2+Og4MDO3fuRK3+v39Oo0aNmDt3Ltu3b+f69eskJycD8MILL2BlZaV4BSGEEM+aCk9Obm5ufPvtt2RlZeHt7Q1AbGwsR48e1fepW7cuAGlpady9e1ffLoQQ4tlU4ckpKSmJmJgY7Ozs8PX1JTc3lx9//NGgT+vWrQE4c+aMDOkJIcRzoMKTk06nQ6fT4evrS6VKlUhJSeHPP//Ux21sbHj55ZcB2LlzJ3l5FXqJTAghRDmo8ORUoGnTpgCcPn2a9PR0fXv9+vVp0KABt27dYu/evVhbW9O8eXNUKlWhrYUQQjxLTCI5WVlZ6a83/frrrwZnR23btgVg37593Lp1ixEjRhAUFKSPCyGEePaYRHKqXLkyDRs2RKfTsXfvXn27VqvF09MTgF27duHm5ka3bt34+uuvZXhPCCGeYSaRnOrXr4+dnR0nT54kNTVV356VlUVaWhrkV/WtWLGCAwcOsG3btkJbCyGEeNaY2dvbT1M2ljedToetrS3Lly/nzJkzBrGdO3diZWWFk5MTO3fuZNasWQZxIYQQz54KXyGigIWFBffu3VM262k0GnQ6nbJZCCHEM8gkhvWAhyYm8s+uhBBCPB9MJjkJIYQQBSQ5CSGEMDmSnIQQQpgcoxREWFlZoVKp9A+lwm15eXnF9imsJH0eR3Z2Njk5OcpmIYQQJqrUyal69epERkZy//59NBoNarUatVqNSqXS/6xWqzEzM9MnnML9zMzMivR/UJJ7EiqVig0bNhAXF6cMCSGEMFGlTk6tWrXi888/VzablN9//50ePXroJ/QKIYQwbaVOTiqViiVLlvDmm28qQ1y4cIEJEybwxx9/KEMGcnNzAfQ3GwTIycnRn23l5eWh0WgwMzMjLy+PGjVq4OTkRN26dalXrx4uLi64u7tjaWlZ6FUNTZw4kS+//FLZLIQQwgSVOjkBODk5sWrVKurXr68MsXPnTgYPHlym85QqVaqEo6MjjRo1olWrVjRp0oQXX3zRoM/+/fsZMGAAd+7cMWgXQghheoyyfFFWVhbnz5+nXbt2WFhYGMTc3d25f/8+Bw8eNGg3Jp1OR3p6OikpKWzfvp2tW7eSnJyMo6Mjrq6ukL82348//siVK1eUmwshhDAxRklOABcvXsTCwoKWLVsqQ3h7e3P8+HEuXbqkDJWJzMxMTp8+zU8//YS5uTm+vr6oVCq0Wi3fffedsrsQQggTY7TkBHDkyBEaNmyIu7u7QbulpSUNGzZk06ZNZGdnG8TKUkZGBrt376ZKlSr4+vri7OzMpk2b+Ouvv5RdhRBCmBCjJqecnByOHTvGG2+8gZ2dnUHMyckJNzc3Nm3aZNBeHnbu3EndunXx8fHh/v377NmzR9lFCCGECTFqcgK4ffs2165do23btmg0GoOYh4cHaWlpHDt2zKC9POzfv5/XXnsNDw8PNm7cWK5ncEIIIR6P0ZMTwJkzZ3BwcKBJkybKEL6+vuzdu5c///xTGSpTd+7c4cqVK/j7+3P27Fl+//13ZRchhBAmwiil5MWxsbFh6dKl+Pn5KUMcPXqUfv36kZGRoQyVOVtbW7Kyssq0tF0IIUTplMmZE/n3Zzp58iSvv/46tra2BrHq1atjZ2fHjh07DNrLw927d/WTfoUQQpimMl2VPDk5mZiYGO7fv68M0bt3bzp27KhsFsIk+Pj40L9/f2WzKIa5uTmTJ0/G3NxcGRIloFKpmDx5MlqtVhl6rpVpcgJYv349a9euVTaj0WiIiIgoUnYuREVTq9UMHz6cvn374uTkpAwLhXbt2jFkyBDatGmjDIkS8PX1ZciQIfTu3VsZeq6VeXICiImJKXaFCBcXF2bMmCFHXMKkFKznSP7tW8TDGesOAs+rwmuKiv+vXN6VmzdvMmvWLK5fv64M0apVK4YNG6ZsFqLCFNy+RZSMmZmZskk8BvmsFa/c3pWjR48yf/78YqvkhgwZQqtWrZTNJkej0WBvb19k/hb5X1A7Ozs5iizEzs4Oa2trZTMA9vb2VKpUSdn83LKysqJy5crKZshfYcWUr0fIzrV0KmKf4eDggJWVlbIZ8mOmMJpVZtV6xTl9+jS1a9fG09PToN3c3Bxvb282b95MZmamQcwUODo6EhoaSkhICL169aJZs2bk5ubq50r17t2bd999l549e+Lt7c2vv/7K3bt3lS/z3OjcuTNDhw4lKCiI1q1bU7t2bY4cOUJubi516tRhypQp9O/fH39/f9LT07lw4YLyJSqUWq2mY8eO2NnZsW7dujKdsO3l5cXw4cMJDg6ma9euNGnShNTUVK5fv45arWbs2LEMHTqUTp064ebmxqFDh0xuqNHLy4t27drx3XffcebMGWVYPIKbmxs9e/Zk9+7dHDlyRBk2GjMzM/r27cvQoUMJDAzEz88PBwcH/vvf/wLQvHlzJk2aRN++fXn55Ze5cOECN27cUL5MuSnXQx6dTsecOXP47bfflCHq16/P+++/r2yucK6ursTHx/POO+/oV1zv3r07ixYtolu3bkydOpUZM2aQk5ODSqUiMDCQNWvWPJcX0tVqNZMmTSI6Opo6depw+/ZtWrRowXvvvUdiYiLNmzfniy++oF69ety4cYMWLVqQkJBA9+7dlS/1XPD39ycuLo433niDrKwsqlatSmBgIMuWLcPT05OkpCQCAwO5fv061apVY8yYMXzyySdypvKMKY8zJwsLC6Kjo5k2bRpOTk5kZGTQpk0bZs2axcyZM+ncuTOfffYZDg4OpKen065dO1avXl3sPNXyUmaTcB/mjTfeYMGCBcUOVbz//vssW7ZM2VwhqlevTmJiIjdv3iQmJoaUlBTu3r3LzJkz6d27N1lZWVhbW/P++++zcuVKZs+eTYcOHbCwsGD48OF8++23ypc0qqCgIKOP91+/fv2JV26PiIigZ8+efPLJJ6xZs4b09HT8/PxISEjAysqKrKws9u7dS1RUFI0bN2b8+PHUrFmTrVu3EhYWVuyQb0XQaDTExcVRs2ZNAgMDuXnzprJLqTVv3pylS5eybds2YmJiuHnzJtbW1iQkJNC0aVOysrLIzs5mwoQJHDt2jNjYWPz8/Pjrr7/o3Lkz58+fV75khenevTsxMTGEhYXx/fffK8PiEVq0aMHq1auZPn06iYmJynCpWVpaEhMTg6enJwsXLmTHjh1kZGTQu3dvPvzwQ8i/7dHGjRuZPn06/fr1IyQkBGdnZ1asWEFkZKTyJctFhSQngPHjxxMeHq5s5ubNm/Tv35+TJ08qQ+XKwsKCmTNn0rRpU0JCQjh37pw+NnjwYCIiIgA4cOAAISEh+Pn5ER8fr+8zZswY1q9fr39eWOFqsCfVtm1bg99nLLdv3yYgIIDU1FRl6KHatGlDbGws//73v1mxYoW+3cXFhQ0bNlCtWjV0Oh3BwcEcP36clStX8tJLLwGwfft2hg8f/tDhM41GU27Jq6yTU7Vq1Vi0aBG3b98mPDzcYAh44cKF+vl/X3zxBZMnT2by5MkMGTIE8lfa79Spk8HnsYBarcbS0vKh72NZkORUOmWdnAYOHMiYMWMYOXKkwcIHL730kv4AOi0tjZ49e3Lnzh2++eYbqlSpAsDKlSv1+7ryVmHjA4sWLeKnn35SNlOlShWmTJnywIvD5aVp06Z07dqVdevWFdkR1KpVS//z4cOHycjIMLhFfHJyMj///LP+eWEajYbBgweXek7D1q1b6dChAx07dnzko3379nTo0MHg0b59e4NHQEAAAQEBdO/e/bETU+XKlRk4cCDJycls3LjRIObg4ICzszMAKSkpnDp1CktLS/3QlE6ne+itVLRaLe3atWPMmDHFFqI8jbp3746vry+ffvqpQWLSarX69wpg8+bNkH+gVGDXrl1cvnxZ/5z8z1RYWBgJCQkkJSWRkJBAWFjYAy94P41q1qxJr1699Ac0j8PDw4M+ffpQr149ZeiRXnrpJXr16kWNGjWUoadC9erVCQoKYs+ePfz4448GscLvx/Hjx7l8+bLBd/Ovv/7i66+/LrRF+aqwMycAT09PPvvsM6pXr64MsWjRIubMmaNsLjf9+/enW7duhISEGBw5a7Va4uPjeeWVVwDo06cP+/fvB6BHjx54eHjoj4qV1Go148aNIywsjNTUVN56661iy+ufNi4uLnzyySesX7+ezz//3CAWFBTEjBkzAPjmm28YOXIkALVr1yY4OJjt27cX+dI0a9YMd3d3ateujY+PD6+88gq7du0iLCyMe/fuGfR9XLVq1TI4kCiOWq1m4sSJvPDCC0RERDzy/l9qtZrk5GRlc7EsLCyYMmUKDg4OvPfeewbJydXVlY0bN+Lo6MilS5fo1asXqampaDQahg8fzp07d1i6dKnB8lsajYb4+Hjc3d05duwYtra2NG7cGHt7e3bs2MGIESOeuMjI2toaNzc3ZXMRr776KhEREURFRbFv3z5luIgLFy48VsGQh4cHy5cvx8XFhczMTCZMmFDiIfOC4VN7e3vS0tIYPnw4e/fuVXYr1r/+9S9iYmLQarVcunSJ0NBQTp06pez2QBqNhjp16iibi/Dy8uKjjz4iNja2RH9Xamoq6enpyuZiNWjQgAULFhAZGVnk7542bRoDBgwA4KOPPuKjjz6C/O9fp06dWL169WP9vcZWockJoFevXsUmoczMTAYOHMiBAweUoXJhZmaGpaUlWVlZBu1ubm588803ODo6cu7cOfr06cMff/xh0OdhBgwYwJgxY4iLiyMuLk4ZfmpptVqysrKKDFfOnz+frl27AjB58mS++OILg7iSSqUiNjaWV155hZSUFKytrfHx8WH79u2lTk7e3t4sX74cR0dHZahUCoYrS3qfMEtLS/Ly8or8LYWHardv387QoUOLXfqrsIiICBo1asTo0aO5fPkyarUab29vFi5cSI0aNVi9ejURERGPPSSq1WqJi4ujdevWylCprV+/nnHjxpGTk6MMFWvs2LGMGDFC//yHH35gzJgxRb6bxZk1axaBgYH652vWrGHChAlFPqdKlpaWzJs3jw4dOujbFi9ezL///W+Dfg+iUqlYvHgx7dq1U4ZKbdu2bYwYMeKBow1KNjY2RZJZ4YPsvLw8evfuXexCCRWpwpMTQGRkJAMHDjRo27x5M2FhYSa3SGvHjh1ZuHAhAFu2bCE8PPyxv/iOjo6kpaUpm585jo6OfP7553h5eZGdnU3Hjh05e/asslsR1tbWWFpacufOHSIiIujXr59RkpNGo6Ffv36PnMOhVqtp06YNzs7OrF279pFH+Tk5OSxbtuyRO7xHedCR7IPY2try5ZdfUqtWLRYuXMiSJUv035dRo0YxatQoyD+j/+WXXxRbP5q/v3+RaR/FcXd3JzAwkOXLlxcZcizO1q1bH6ugo1OnTixYsED/PCkpialTpxr0eZDg4GCioqL0z+fMmcOiRYsM+jzIxIkTGTp0qP75e++9x1dffWXQ52F8fX1p3ry5srkIJycnQkNDWbduXYnOwPfv368v/35SNWvWZOPGjdjZ2fH777/Tp0+fcr+N0aOYRHKyt7dn/vz5vP766wD8/PPPDBky5ImHI8rSjBkzCAoKgvxlmQp/acqbs7Oz0ZN3dna20d53Ly8vvv32W9RqNceOHWPAgAHcunVL2e2hPvjgA6Mlp5Iq64KI4mi1WhITE2nRogXkz5171KhBtWrV+P7773F0dCQlJYXevXvrD3patWqlH2KdOXNmmRTPFCiPgoh+/frx1ltv8dtvvxEVFfVYn/vw8HBee+01Dh06RHR0dIkPIgoWZG3UqBGbN2/m008/VXYxirIuiChO4YT/pAfZZa3CCiIKu3fvnn6o5dChQ4wcOdJoO8jS0Gq1Brf7qFy5Mg0bNgQgNze32GGcqlWrFnsNrW7durz33nsEBgYa5cK+l5cX8fHxrFixwqiPhISEJ56jVVDhU8Df319/cfXMmTNFEpOZmdkTXeB+Ftjb2xsUOjg5Oenfi/Pnzxd7ZuHu7o6NjY3++Z9//smGDRtIS0vju+++MzgbLzyMU9yUjafN559/TnBwMFOnTn2sxET+9evg4GDmzp1b4sRE/rqKM2fOZMCAAWWWmMqDmZlZsd/NAseOHSuSmKytrYstIGnQoAETJ07ktdde07e5ubnRq1cvpk6dSvv27Y2yf8MUkpNarSYhIQFfX1/OnTvH5MmTy+VI9VGcnZ2ZNWsWy5Yt44033oD8xNOgQQMALl68WORaU5UqVVizZk2R5e9ffvllvvrqKzw9PZk2bRqRkZEGO6Yncfv2bS5cuMDZs2eN+rh69eojCwCUVCoV7777LnFxccyYMQONRoNKpTK4E/Lx48cNtgEYN24cq1atKtHQ0bOkadOmfPTRRyQlJVGtWjXIvwhd8Jk5e/Zskf+Dxo0bs3nzZt555x39pM28vDxmzJhB27ZtiwwB+vj46H82tWsJT6o0B6wVtW1F02g0REZGsnjxYv11OxsbG1588UV9H+WQr1qtZv78+SxYsABXV1d9e6NGjYiPj8fX15fPPvuM0aNH06dPH1auXEmPHj144YUXiI2NJTo62igJqsKT0+zZs/Hz8+PGjRtMnDiRlJQUZZdyZ2dnx7x58+jcuTNNmzalS5cuWFhY0Lp1a/16cJcvXy6yA2nTpg3u7u5s2bJF/4HWarVMmTKFJUuWMH78eP7++286deqEg4ODwbaP6+rVq4wbN47Ro0cb9TFu3LhHXoRX6tu3L6NHj6Z58+Z06dKFmjVrUrVqVYMdpHJZFkdHR9q1a8e+ffv0y0A9TF5e3mMd9ZqqunXr8sknn/Daa6/RokULfbFI4SPZ8+fPc+fOnUJb/V9VaEZGBt9//73B+5CXl1fkYM7a2lr/ups3b+bXX381iIvnQ8Gw5DvvvMPLL79MQEAA1apVw9XVVT8CdO3atSLXCT08PGjVqhUHDx7kypUrkL/E3KhRo9iwYYN+JZ/Q0FAGDhzIsGHDGDBgAJMmTeLMmTN06dJFfxBfGhWanEaOHEmPHj3IzMxkypQpjxxjLy+Ojo54eXnpn587d468vDyDyqXs7GyDHYifnx+jR49m586d7N69W9/esmVLbGxsWLlyJd7e3jg5OZGamlriSpuHuXv3LjqdzqiPklZQFTAzM6NZs2b65xcvXiQzM5OWLVvi4uICwP379/n777/1fQomOFepUoUVK1aU6DqSSqUql2VeypqHh4d+2Fen03HmzBlcXFzw9fXV91FOQ+jXrx9du3blP//5D2dLUFDSpUsXmjRpwunTp5k0aVKRRCeeD7a2tgajEleuXCE9PZ0OHTroz2yysrIMPh/Vq1fngw8+4MaNGyQlJenbXVxc8PHx4auvvtKXx//111+MHj2aEydO6Ct1Cw5sjbGoc4Ulp169ejFy5EhycnKIjo7mhx9+UHapMOnp6frx+z179rB+/XqioqLw8/Nj06ZN5Obm8uKLL/Lqq69Ss2ZNBg8ezLx588jLy2PatGkG4/06nY7Y2FgyMzN56623IH9VicI766dZTk6Ofq7WzZs3ef/99/nHP/7B+PHj2bNnD+fPn8fc3JzevXvj4uKCv78/K1asICAggAULFhQ7Ebs4z0JiIv+Mu+AAYNGiRfrbyVhaWrJr1y7IP9Dx8vKiQYMGTJs2jUmTJnHs2LFip1woNWrUiFGjRnHo0CEGDhz4XFSFiuKlp6frR3fOnTvHnDlzCAwMJDg4mK1bt5KWlkbNmjUJCAjghRde4F//+hcJCQn4+PjwwQcfGCzie+/ePeLj47l06ZK+aGf37t0GK/lYWVlRu3ZtsrOzi5yNPYkKSU7+/v5ERkZiZmZGfHy8yaylV+DGjRvMnz+fzMxM/Pz8WLNmDQEBAUyfPp3w8HAWLFiAra0t8fHxrFu3joiICH7//XcCAwOLrLC9e/duNmzYgLOzM23atCEnJ+eByxo9rT7++GNOnjxJlSpVmD9/PrNnzyY5OZnQ0FBGjBjBqVOnCA0NZf369SxfvpxatWoRGRlZphVkpuq///2vvuw8ODiYpKQkatWqxciRIwkNDeW7776jcePGrF69mrVr19K3b1+2bNnCgAEDHlnS7ubmxrx580hJSdFP9BbPr9zcXGbPns3Vq1dxd3cnMTGRsWPH8u233zJ48GDGjx/PpUuX+OCDD1i7di2LFy/WrzaydetWg9e6du0acXFxWFlZ6UeVDh06ZNDH398fGxsbDh8+XOSSx5Mo91JyLy8vEhIScHFxYd26dYwfP/6xh5LKS8uWLWnQoAEZGRkcOnRIX0GlUqmoU6cOPj4+WFhY8L///Y8TJ0489FpNSEgIU6dO5dChQwQFBXH//n2T/bufROXKlenatSsajYajR49y6tQp/c7U0dGRevXq4enpyeXLl0lOTubq1avKlyhWQSn5jh07CAsLe+QO2hjKo5S8ffv2VK9encuXL3P48GH977CwsKBOnTo0btyYzMxMUlJSOH36tHLzIuzs7Fi1ahXXr19nxIgR+jPzoKAgbt26VaKVB55UeZSSP8vKupS8du3avPrqq+Tl5fHLL7/w22+/6fc9Li4u1KtXj9q1a3Pu3DlOnTr10LPt6tWrs2PHDszMzPjnP/+pP0PSaDTExMTQuXNn5s+fz8cff4ymlOthluuZU5UqVfj4449xcXFh27ZtREVFmfQOev/+/Sxbtoy1a9calPbm5eVx9uxZ/vOf/7B69WqOHDny0MRkZWVFQEAA5M/u1ul0jBkzpkRLmzwtMjIySEpKYtmyZRw5csQgiaSlpXHw4EFWrFjBjh07SpyYnmWbNm0iMTGRLVu2GCS/e/fukZyczKpVq/jmm29KlJi0Wi3z5s3j4sWLDBkyRJ+YrK2t6dGjB3Z2dspNxHPk/PnzLF++nBUrVnDq1CmDfW5qaip79uwhKSmJn3766aGJifxhY2tra06ePGkwNcTBwQE/Pz9ycnLYvHkzNjY2zJo1q1RrpJZbctJqtSxdupT69evz66+/EhERQUZGhrLbM6lGjRo0atSItLQ0Nm7ciIeHB507dzZKUcTzojyvOeXk5HDw4EEOHjxYZNkXU2Nubs7SpUupVq0a27Zto2PHjnTv3p1u3brRo0cPGjRowKVLl5SbGdXx48fZs2dPhd9J4Gl14cIFdu/e/VSU/Lds2RKAkydPGpTYN2vWDGdnZw4fPszFixd56623aNiwYakqbMslOalUKmJiYmjatClnz55lwoQJReYIlQeVSoWrq+sjF/40NltbWzQaDSdPniQrK4vQ0FBWrVol1wQewN7eHjc3N9zd3fUVf46Ojrz55pt4eno+8SThksrLy+PTTz8lKiqqRJWEFenDDz/kH//4By+99BLR0dHExMQQExPDvHnzmD59OhYWFmWenFJSUhg6dCgXL15UhkQJXLt2jfDwcE6cOKEMmZRKlSrpq/+Ui8jWrVsX8u/IUK1aNYKDg0lMTCzVHLFyueYUFRVFcHAwV69eZdSoURV2hNC5c2eGDRvGnDlz2LZtmzJcZipVqsTSpUt58cUXuXbtGikpKYwbN+6xZ7o/LwqvMVecbdu2ERoaatJDwuWh4Gyp8KoRSqmpqbRv377I6hxCPK4qVaqwYcMG7O3tefPNNw0Orl1cXPjss8/QaDRYWVmxYsUKlixZYrD94yrz5DRkyBAmT57M33//zYQJEyrsgqmdnR0rV65Eq9XSq1evcr9VhaWlJY0bN8bOzo7t27eX6kLhs87a2hpbW1tycnJQqVTk5ubql0FSqVRkZ2c/M6X4pVVwZvkg9+/f58aNG8pmIZ6It7c3ZmZmHD16VBnC2dmZJk2acObMGYMy9CdVpsmpc+fOzJ49G7VazfTp04vc66c8FVR9VeSdHYUQQpRMmV1zat68OVFRUVhYWLBo0aIKS0wqlYpx48YRGBiITqd7rCXvhRBCVIwySU7169dn9uzZODo6snr16iKLUpYXZ2dnoqOjGTZsGGq1msOHD5fofilCCCEqltGTk6OjI3PnzsXd3Z1NmzYxffp0ZZcy5+Liwttvv018fDzdu3fXt+/cuVPKt4UQ4ilg1GtO1tbWLF68mNatW7N//37Cw8MfOamrtKytralcuTJarZaWLVvi7e2Nh4eHwWKkALdu3aJLly5FlhcSQghheoyanObNm0e3bt1IS0tjyZIlXLlyBZ1OR3Z2Njk5Ody9e5eMjAz9shYFK+MW/JyTk4NarUan01GpUiUsLS2xtLTE3NwcrVaLpaUlVlZW2Nvb4+joiJ2dHS4uLri6ulKjRg3lP8fA1q1bGTp06HNffiyEEE8DoyWnsWPHMnz48HKdyf84hg8fXqbriwkhhDAeo1xz6tevH2FhYSabmM6dO2cy94oSQgjxaKVOTp6enkyaNMkot+UtK7/88ku5T7oVQgjx5IwyrOfu7k5eXp7B3UqVzwvk5uZiZmZm0KZUcO3pQR62mGBxsdTUVLkbqBBCPEWMkpyEEEIIY3rw6YkQQghRQSQ5CSGEMDmSnIQQQpiccklOWq1W2VSmyvv3CSGEMK4yT05NmjQhNjaWoKAgZcioNBoNVatWZezYsURERGBubq7sIoQQ4ilRpsnJzs6OiRMn8s9//hN/f38qVaqk7FJqrVq1YuzYsSxevJgtW7YwYsQI3NzcHlmuLoQQwnSVaXL6+++/2bt3Lz/88AMzZ84skxXBW7Zsia+vLxcvXqyw278LIYQwrnKZ52Rpacndu3eVzUah0WjQaDTcuXOHKVOmMGjQIH766ScGDRokE2+FEOIpVaZnTgVLGpVVYiJ/RXNJQkII8Wwps+TUunVrJk+eTM+ePR+6FJEQQgihVCZZIywsjLFjx3L37l3mzp3LhAkTDAoUNBoNDg4OT/RwdHQ0+F1CCCGePUa/5lSnTh0SExMZNGgQrq6uLF++nAMHDhASEkJGRgZqtZoRI0bQtm1b5aYGlAvGFtDpdISFhXH16lVliIiICAYPHsyePXsYNGhQmQ4nCiGEKDtGT04zZ85ErVYzadIkpk+fTv/+/fnyyy+ZOHGivo9Wq6Vq1aoG2xWWm5v7wOSkVqs5d+6cshlACiKEEOIZYfTk1KJFC86fP8+9e/dYv3497u7uvP322+zbt0/Z1egKktPPP/9MSEiIJCchhHhKGf2a04EDB/jjjz9o3Lgx7u7uHDt2jBMnTii7lbkHnXkJIYQwfUY/cyK/4CE6OpouXboQGxvLvHnzqFSpkn4Sbp06dWjatKlysxLJzc1l/fr1xd5UsPCZ06BBg8pk0q8QQoiyVybJyc3NjU2bNmFlZUVAQADZ2dnMnj2bd999l9u3bxMeHk5AQIBysxLR6XSEhoZy7do1ZUifnPbu3UtISIgkJyGEeEqVSXIKDg4mKiqKrVu3Eh4ezrBhw2jUqBFDhgzh3r17qNVqrKyslJuViEqlIjMzU9kMhZLTvn37GDhwoCQnIYR4SpnZ29tPUzaWlo+PD6+//jrbt28nOzubUaNGER0dra+yy8vL4/79+0/8KKxhw4a0bt0aLy8vWrVqRa1atdDpdOTm5lKvXj2cnJy4ePGiwTZCCCFMW5mcOWm1Wj788EN8fX25d+8ec+bMYevWrcpuRjFw4EC6du2KSqUiNzeXvLw8VCoVarUalUrFsWPHiIyMRKfTKTcVQghhosokOQFYWVnh5OTE3bt3uX79ujJsNBqNBq1WS25uLuQXTBReLiknJ4esrKxCWwghhDB1ZZachBBCiCdl9HlOQgghRGlJchJCCGFyJDkJIYQwOZKchBBCmBxJTkIIIUyOJCchhBAmR5KTEEIIkyPJSQghhMmR5CSEEMLk/D9AwDkyCrKeIgAAAABJRU5ErkJggg==;" vertex="1" parent="7">
                    <mxGeometry x="510" y="100" width="233" height="61.69" as="geometry"/>
                </mxCell>
                <mxCell id="14" value="Number..." style="rounded=1;whiteSpace=wrap;html=1;align=left;" vertex="1" parent="7">
                    <mxGeometry x="20" y="160" width="300" height="31.69" as="geometry"/>
                </mxCell>
                <mxCell id="12" value="" style="whiteSpace=wrap;html=1;" vertex="1" parent="1">
                    <mxGeometry x="40" y="63" width="760" height="55" as="geometry"/>
                </mxCell>
                <mxCell id="13" value="&lt;font style=&quot;font-size: 26px;&quot;&gt;Sum of Numbers with Addition, in JavaScript&lt;/font&gt;" style="text;html=1;align=center;verticalAlign=middle;resizable=0;points=[];autosize=1;strokeColor=none;fillColor=none;fontSize=30;fontStyle=1" vertex="1" parent="1">
                    <mxGeometry x="135" y="65.5" width="580" height="50" as="geometry"/>
                </mxCell>
            </root>
        </mxGraphModel>
    </diagram>
</mxfile>